<?xml version="1.0" encoding="UTF-8" standalone="no"?>
<!-- Generator: Adobe Illustrator 26.0.1, SVG Export Plug-In . SVG Version: 6.00 Build 0)  -->

<svg
   version="1.1"
   id="Layer_1"
   x="0px"
   y="0px"
   viewBox="0 0 246.89288 300"
   xml:space="preserve"
   sodipodi:docname="شعار وزارة العدل السعودية –  SVG.svg"
   width="246.89288"
   height="300"
   inkscape:version="1.3.2 (091e20e, 2023-11-25, custom)"
   xmlns:inkscape="http://www.inkscape.org/namespaces/inkscape"
   xmlns:sodipodi="http://sodipodi.sourceforge.net/DTD/sodipodi-0.dtd"
   xmlns:xlink="http://www.w3.org/1999/xlink"
   xmlns="http://www.w3.org/2000/svg"
   xmlns:svg="http://www.w3.org/2000/svg"><defs
   id="defs101" /><sodipodi:namedview
   id="namedview101"
   pagecolor="#ffffff"
   bordercolor="#999999"
   borderopacity="1"
   inkscape:showpageshadow="2"
   inkscape:pageopacity="0"
   inkscape:pagecheckerboard="0"
   inkscape:deskcolor="#d1d1d1"
   inkscape:zoom="0.674"
   inkscape:cx="298.21958"
   inkscape:cy="362.0178"
   inkscape:window-width="1500"
   inkscape:window-height="912"
   inkscape:window-x="-8"
   inkscape:window-y="-8"
   inkscape:window-maximized="1"
   inkscape:current-layer="Layer_1" />
<style
   type="text/css"
   id="style1">
	.st0{clip-path:url(#SVGID_00000121977838640356068470000015156632624594888372_);fill:#04814F;}
	.st1{clip-path:url(#SVGID_00000121977838640356068470000015156632624594888372_);fill:#E9CA5E;}
	
		.st2{clip-path:url(#SVGID_00000121977838640356068470000015156632624594888372_);fill:none;stroke:#231F20;stroke-width:1.4594;stroke-miterlimit:10;}
	
		.st3{clip-path:url(#SVGID_00000028320003419277016680000005804086082998744241_);fill:url(#SVGID_00000072996638601808831060000012641182749866833080_);}
	
		.st4{clip-path:url(#SVGID_00000134969496500162426710000005819997216538332602_);fill:none;stroke:#231F20;stroke-width:1.4594;stroke-miterlimit:10;}
	.st5{fill:none;stroke:#020303;stroke-width:1.3271;stroke-linejoin:round;stroke-miterlimit:10;}
	.st6{clip-path:url(#SVGID_00000166651555281230439510000016738399761140447128_);fill:#FFFFFF;}
	.st7{clip-path:url(#SVGID_00000166651555281230439510000016738399761140447128_);fill:#231F20;}
	.st8{clip-path:url(#SVGID_00000166651555281230439510000016738399761140447128_);fill:#020303;}
	.st9{clip-path:url(#SVGID_00000166651555281230439510000016738399761140447128_);fill:#04814F;}
	
		.st10{clip-path:url(#SVGID_00000166651555281230439510000016738399761140447128_);fill:none;stroke:#231F20;stroke-width:1.3271;stroke-miterlimit:10;}
	.st11{clip-path:url(#SVGID_00000166651555281230439510000016738399761140447128_);fill:#1C7A62;}
	
		.st12{clip-path:url(#SVGID_00000166651555281230439510000016738399761140447128_);fill:none;stroke:#020303;stroke-width:1.3271;stroke-linejoin:round;stroke-miterlimit:10;}
</style>
<g
   id="g101"
   transform="matrix(0.41363906,0,0,0.41363906,-83.373089,-56.817462)">
	<g
   id="g7">
		<defs
   id="defs1">
			<rect
   id="SVGID_1_"
   x="201.55"
   y="137.36"
   width="596.89001"
   height="725.28998" />
		</defs>
		<clipPath
   id="SVGID_00000095302202522272421980000004460212717908729510_">
			<use
   xlink:href="#SVGID_1_"
   style="overflow:visible"
   id="use1" />
		</clipPath>
		<path
   style="fill:#04814f"
   d="m 798.42,358.31 c -0.17,-2.32 -0.4,-4.75 -0.68,-7.26 -1.55,-13.4 -4.66,-25.92 -9.25,-37.21 -10.34,-25.33 -27.73,-44.17 -51.7,-56.01 -19.59,-9.65 -43.72,-14.57 -71.72,-14.64 l -3.58,-6.74 -0.45,-0.76 c -4.13,-5.99 -8.78,-11.59 -13.2,-16.76 -8.47,-9.85 -15.94,-17.22 -23.5,-23.15 -10.34,-8.1 -22.31,-14.32 -35.57,-18.49 -8.57,-2.68 -18.15,-4.82 -29.27,-6.54 -3.12,-0.49 -6.38,-0.85 -9.74,-1.21 -5.76,-0.62 -11.72,-1.26 -17.54,-2.75 -9.11,-2.35 -17.39,-7.75 -23.31,-15.19 -1.02,-1.29 -2,-2.68 -2.88,-4.17 l -6.03,-10.08 -6.03,10.09 c -0.89,1.49 -1.85,2.88 -2.85,4.15 -5.93,7.46 -14.22,12.86 -23.32,15.2 -5.84,1.5 -11.79,2.13 -17.56,2.76 -3.35,0.36 -6.61,0.72 -9.72,1.21 -11.15,1.72 -20.72,3.86 -29.28,6.54 -13.28,4.17 -25.25,10.4 -35.57,18.49 -7.59,5.95 -15.05,13.31 -23.5,23.15 -4.19,4.88 -9.03,10.67 -13.22,16.79 l -4,7.46 c -28.01,0.07 -52.14,5 -71.74,14.64 -16.75,8.27 -30.4,20.06 -40.57,35.06 -10.89,16.03 -17.74,35.6 -20.33,58.16 -0.32,2.8 -0.57,5.45 -0.75,8.52 v 503.06 h 596.9 V 380.44 Z m -581.95,-5.43 c 2.31,-20.01 8.27,-37.22 17.75,-51.15 8.85,-13.07 20.3,-22.94 35,-30.19 17.85,-8.78 40.18,-13.23 66.37,-13.23 h 7.69 l 7.45,-14.05 c 3.72,-5.4 8.14,-10.68 11.99,-15.15 7.81,-9.1 14.61,-15.83 21.43,-21.17 8.98,-7.05 19.45,-12.48 31.12,-16.15 7.91,-2.47 16.83,-4.46 27.31,-6.08 2.93,-0.46 5.98,-0.78 9.1,-1.13 6.22,-0.66 12.67,-1.36 19.46,-3.09 11.03,-2.84 21.17,-9.09 28.85,-17.74 7.68,8.65 17.82,14.91 28.87,17.74 6.76,1.73 13.2,2.43 19.42,3.09 3.14,0.35 6.17,0.67 9.12,1.13 10.46,1.62 19.39,3.61 27.29,6.08 11.68,3.66 22.15,9.09 31.13,16.15 6.8,5.34 13.61,12.06 21.43,21.17 4.06,4.73 8.31,9.84 11.98,15.13 l 7.47,14.07 h 7.69 c 26.19,0 48.51,4.44 66.36,13.23 20.99,10.37 35.59,26.17 44.62,48.3 4.05,9.96 6.81,21.08 8.19,33.04 0.26,2.28 0.47,4.49 0.6,6.01 V 782.1 H 732.74 V 749.36 H 656.01 V 715.7 H 343.97 v 33.65 h -76.73 v 32.74 H 215.82 V 380.31 l -0.02,-20.19 c 0.16,-2.31 0.39,-4.72 0.67,-7.24"
   clip-path="url(#SVGID_00000095302202522272421980000004460212717908729510_)"
   id="path1" />
		<path
   style="fill:#e9ca5e"
   d="m 773.43,679.56 -54.79,-229.24 -219.99,-34.28 -217.28,34.28 -54.79,229.24 -0.21,0.88 h 0.9 56.65 c 2.26,0.07 4.55,0.11 6.9,0.11 1.69,0 3.45,-0.07 5.17,-0.11 h 187.99 c 0.26,5.68 3.62,9.09 6.91,10.94 3.44,1.95 6.81,2.37 6.85,2.38 h 0.05 0.05 4.32 0.04 0.05 c 0.05,-0.01 3.42,-0.43 6.85,-2.38 3.29,-1.85 6.64,-5.25 6.91,-10.94 h 187.91 c 1.74,0.05 3.49,0.11 5.17,0.11 2.35,0 4.64,-0.05 6.91,-0.11 h 56.74 0.91 z"
   clip-path="url(#SVGID_00000095302202522272421980000004460212717908729510_)"
   id="path2" />
		
			<path
   style="fill:none;stroke:#231f20;stroke-width:1.4594;stroke-miterlimit:10"
   d="m 773.43,679.56 -54.79,-229.24 -219.99,-34.28 -217.28,34.28 -54.79,229.24 -0.21,0.88 h 0.9 56.65 c 2.26,0.07 4.55,0.11 6.9,0.11 1.69,0 3.45,-0.07 5.17,-0.11 h 187.99 c 0.26,5.68 3.62,9.09 6.91,10.94 3.44,1.95 6.81,2.37 6.85,2.38 h 0.05 0.05 4.32 0.04 0.05 c 0.05,-0.01 3.42,-0.43 6.85,-2.38 3.29,-1.85 6.64,-5.25 6.91,-10.94 h 187.91 c 1.74,0.05 3.49,0.11 5.17,0.11 2.35,0 4.64,-0.05 6.91,-0.11 h 56.74 0.91 z"
   clip-path="url(#SVGID_00000095302202522272421980000004460212717908729510_)"
   id="path3" />
		<path
   style="fill:#e9ca5e"
   d="m 704.11,437.32 -9.91,-1.88 c -36.12,-6.83 -127.52,-35.7 -194.2,-22.9 -66.68,-12.8 -158.08,16.07 -194.2,22.9 l -9.91,1.88 -60.92,235.49 c 60.29,15.28 108.59,4.16 137.93,-12.12 55.37,-30.73 127.11,13.85 127.11,13.85 0,0 71.73,-44.58 127.12,-13.85 29.34,16.28 77.63,27.4 137.92,12.12 z"
   clip-path="url(#SVGID_00000095302202522272421980000004460212717908729510_)"
   id="path4" />
		
			<path
   style="fill:none;stroke:#231f20;stroke-width:1.4594;stroke-miterlimit:10"
   d="m 704.11,437.32 -9.91,-1.88 c -36.12,-6.83 -127.52,-35.7 -194.2,-22.9 -66.68,-12.8 -158.08,16.07 -194.2,22.9 l -9.91,1.88 -60.92,235.49 c 60.29,15.28 108.59,4.16 137.93,-12.12 55.37,-30.73 127.11,13.85 127.11,13.85 0,0 71.73,-44.58 127.12,-13.85 29.34,16.28 77.63,27.4 137.92,12.12 z"
   clip-path="url(#SVGID_00000095302202522272421980000004460212717908729510_)"
   id="path5" />
		<path
   style="fill:#e9ca5e"
   d="m 688.15,423.4 c 0,0 -118.36,-34.97 -188.09,-13.07 -0.02,0 -0.04,-0.03 -0.06,-0.03 -0.02,0 -0.04,0.03 -0.05,0.03 -69.74,-21.9 -188.09,13.07 -188.09,13.07 l -64.3,243.8 c 42.08,15.14 84.78,3.59 107.16,-5.93 83.55,-50.35 145.28,11.56 145.28,11.56 0,0 61.72,-61.91 145.28,-11.56 22.39,9.52 65.09,21.07 107.16,5.93 z"
   clip-path="url(#SVGID_00000095302202522272421980000004460212717908729510_)"
   id="path6" />
		
			<path
   style="fill:none;stroke:#231f20;stroke-width:1.4594;stroke-miterlimit:10"
   d="m 688.15,423.4 c 0,0 -118.36,-34.97 -188.09,-13.07 -0.02,0 -0.04,-0.03 -0.06,-0.03 -0.02,0 -0.04,0.03 -0.05,0.03 -69.74,-21.9 -188.09,13.07 -188.09,13.07 l -64.3,243.8 c 42.08,15.14 84.78,3.59 107.16,-5.93 83.55,-50.35 145.28,11.56 145.28,11.56 0,0 61.72,-61.91 145.28,-11.56 22.39,9.52 65.09,21.07 107.16,5.93 z"
   clip-path="url(#SVGID_00000095302202522272421980000004460212717908729510_)"
   id="path7" />
	</g>
	<g
   id="g15">
		<defs
   id="defs7">
			<path
   id="SVGID_00000031197113173278779200000000071590806215744908_"
   d="m 321.63,417.4 -62.04,241.81 c 36.17,24.26 89.66,-4.14 89.68,-5.19 87.88,-56.64 150.72,17.18 150.72,17.18 0,0 62.86,-73.82 150.74,-17.18 0.02,1.04 53.5,29.45 89.67,5.19 L 678.36,417.4 c 0,0 -34.06,-37.57 -90.56,-37.57 -25.16,0 -54.76,7.45 -87.8,28.98 -33.03,-21.53 -62.64,-28.98 -87.79,-28.98 -56.52,-0.01 -90.58,37.57 -90.58,37.57" />
		</defs>
		<clipPath
   id="SVGID_00000134971285813969901910000008860520991567250838_">
			<use
   xlink:href="#SVGID_00000031197113173278779200000000071590806215744908_"
   style="overflow:visible"
   id="use7" />
		</clipPath>
		
			<linearGradient
   id="SVGID_00000111148877152444461240000011712447014479502770_"
   gradientUnits="userSpaceOnUse"
   x1="-41.7742"
   y1="1460.0621"
   x2="-37.213699"
   y2="1460.0621"
   gradientTransform="matrix(105.4328,0,0,105.4328,4663.9541,-153406.8)">
			<stop
   offset="0"
   style="stop-color:#FDCA5E"
   id="stop7" />
			<stop
   offset="0.1157"
   style="stop-color:#FBC558"
   id="stop8" />
			<stop
   offset="0.2678"
   style="stop-color:#F4B845"
   id="stop9" />
			<stop
   offset="0.4394"
   style="stop-color:#E9A328"
   id="stop10" />
			<stop
   offset="0.5"
   style="stop-color:#E59A1B"
   id="stop11" />
			<stop
   offset="0.5606"
   style="stop-color:#E9A328"
   id="stop12" />
			<stop
   offset="0.7322"
   style="stop-color:#F4B845"
   id="stop13" />
			<stop
   offset="0.8843"
   style="stop-color:#FBC558"
   id="stop14" />
			<stop
   offset="1"
   style="stop-color:#FDCA5E"
   id="stop15" />
		</linearGradient>
		
			<rect
   x="259.59"
   y="379.82001"
   style="fill:url(#SVGID_00000111148877152444461240000011712447014479502770_)"
   width="480.82001"
   height="303.66"
   clip-path="url(#SVGID_00000134971285813969901910000008860520991567250838_)"
   id="rect15" />
	</g>
	<g
   id="g16">
		<defs
   id="defs15">
			<rect
   id="SVGID_00000057850505541432885110000000098417345738109573_"
   x="201.55"
   y="137.36"
   width="596.89001"
   height="725.28998" />
		</defs>
		<clipPath
   id="SVGID_00000127738062221863020330000012155267864645750457_">
			<use
   xlink:href="#SVGID_00000057850505541432885110000000098417345738109573_"
   style="overflow:visible"
   id="use15" />
		</clipPath>
		
			<path
   style="fill:none;stroke:#231f20;stroke-width:1.4594;stroke-miterlimit:10"
   d="m 678.36,417.41 c 0,0 -71.13,-78.51 -178.37,-8.61 -107.22,-69.9 -178.37,8.61 -178.37,8.61 l -62.05,241.81 c 36.16,24.27 89.66,-4.14 89.67,-5.19 87.91,-56.63 150.76,17.18 150.76,17.18 0,0 62.85,-73.82 150.74,-17.19 0.02,1.06 53.5,29.46 89.68,5.19 z"
   clip-path="url(#SVGID_00000127738062221863020330000012155267864645750457_)"
   id="path15" />
	</g>
	<line
   class="st5"
   x1="500"
   y1="672.83002"
   x2="500"
   y2="408.42001"
   id="line16" />
	<g
   id="g100">
		<defs
   id="defs16">
			<rect
   id="SVGID_00000183231382818672571450000016264253195344385168_"
   x="201.55"
   y="137.36"
   width="596.89001"
   height="725.28998" />
		</defs>
		<clipPath
   id="SVGID_00000026872820391876966590000011639630214089585051_">
			<use
   xlink:href="#SVGID_00000183231382818672571450000016264253195344385168_"
   style="overflow:visible"
   id="use16" />
		</clipPath>
		<path
   style="fill:#ffffff"
   d="m 495.89,729.32 1.1,-4.7 c -3.77,4.03 -5.1,10.29 -5.54,16.35 0.21,1.78 2.23,2.7 3.99,2.24 1.77,-0.68 4,-2.03 4.22,-4.03 1.56,-4.02 -0.88,-7.62 -3.77,-9.86 m 2.44,8.07 c -1.56,0.9 -3.34,2.46 -5.11,1.8 -0.22,-1.57 0.22,-3.82 1.11,-5.38 1.33,0.89 4,1.35 4,3.58"
   clip-path="url(#SVGID_00000026872820391876966590000011639630214089585051_)"
   id="path16" />
		<path
   style="fill:#ffffff"
   d="m 492.56,748.14 -2.45,7.17 c 2.45,17.69 2.89,36.51 4.44,54.65 -1.11,7.62 4.22,18.59 -4.44,22.4 -5.33,1.35 -12.43,0.68 -15.31,-3.59 4.88,-3.58 13.54,-2.68 13.76,-10.98 -8.89,-8.95 -24.66,-7.61 -35.98,-4.48 -5.33,0 -5.79,6.28 -7.33,9.86 l 5.11,-1.12 c 4.67,0 7.99,2.92 11.32,6.05 -4.67,3.58 -9.99,4.93 -15.77,5.16 -2.45,-0.22 -4.9,-2.46 -5.78,-4.93 -4.66,-18.6 -4.66,-40.32 -17.32,-54.65 l -1.11,6.04 c 3.78,12.77 10.67,24.65 10.22,38.75 -9.78,13.22 -23.34,23.3 -39.33,22.85 -2.88,-0.9 -4.43,-3.8 -4.22,-6.73 7.78,-6.26 19.11,-12.31 21.33,-22.61 4.44,-23.08 -1.33,-46.36 -1.12,-69.43 1.12,1.12 2.01,2.68 3.33,2.91 -0.88,-6.71 -3.99,-13.44 -6.87,-19.7 l -2.23,5.37 c 2,26.2 3.55,53.97 4.67,80.85 -5.33,5.6 -11.78,10.75 -18.21,13.44 0.66,-2.47 1.99,-5.38 1.55,-7.63 -2.22,3.37 -1.34,8.74 -5.55,10.98 -8.43,4.27 -18.87,8.06 -28.65,4.27 -6.43,-3.14 -9.77,-9.86 -9.55,-16.81 -0.43,-7.61 3.78,-13.2 5.78,-19.71 -0.45,1.13 -1.79,3.37 -3.55,2.92 -3.34,-4.93 0.88,-9.63 1.32,-14.57 -2.66,5.38 -6.66,12.77 -2.22,18.82 -2.44,4.92 -3.11,10.74 -3.11,16.57 0,8.51 2.67,16.57 10.45,21.05 10.43,4.92 21.32,-0.23 29.99,-5.15 l 1.33,8.07 c 1.56,3.35 4.44,5.6 7.99,5.81 16.44,-1.8 33.32,-13.88 39.1,-29.78 1.78,6.49 0.88,13.89 5.78,19.04 9.77,6.49 18.88,-1.78 26.86,-6.26 5.78,5.14 12,9.62 20.44,8.5 5.34,-0.67 7.99,-6.72 9.76,-10.97 5.11,-21.05 -1.1,-43.45 -0.88,-65.39 l 3.78,2.23 c -1.34,-6.73 -4.23,-14.13 -7.33,-19.27 m -29.1,71.44 c 2.89,-1.12 8.88,-0.68 12.21,1.11 l -6.67,3.14 z"
   clip-path="url(#SVGID_00000026872820391876966590000011639630214089585051_)"
   id="path17" />
		<path
   style="fill:#ffffff"
   d="m 515.87,725.75 c -2,0.68 -1.55,2.91 -2.44,4.25 l 2.88,-0.67 c 3.34,3.59 -3.32,7.18 -4.21,10.08 4.21,-2.68 7.33,-6.94 7.33,-11.86 -0.45,-1.58 -2,-1.8 -3.56,-1.8"
   clip-path="url(#SVGID_00000026872820391876966590000011639630214089585051_)"
   id="path18" />
		<path
   style="fill:#ffffff"
   d="m 427.7,729.77 c 0,-1.57 -1.55,-1.57 -2.66,-2.02 -2.02,0.22 -3.12,2.46 -3.12,4.49 l 2.89,-0.67 c 2.45,3.8 -3.33,7.39 -4.43,10.07 3.99,-2.68 7.55,-6.72 7.32,-11.87"
   clip-path="url(#SVGID_00000026872820391876966590000011639630214089585051_)"
   id="path19" />
		<path
   style="fill:#ffffff"
   d="m 542.52,741.87 2.9,1.8 c 0.23,-1.35 2,-2.48 0.88,-4.04 -4.21,-1.56 0.22,-4.93 -1.33,-8.06 -1.11,-4.26 -4.88,-0.23 -6.67,1.35 -3.11,2.91 0,6.94 2.67,8.5 -6.22,6.27 -13.77,8.74 -20.43,13.88 8.22,-2.02 16,-6.04 21.98,-13.43 m -2.87,-6.95 c 0.44,-1.34 3.1,-2 3.1,0.23 v 1.35 c -1.1,0.66 -2.22,-0.67 -3.1,-1.58"
   clip-path="url(#SVGID_00000026872820391876966590000011639630214089585051_)"
   id="path20" />
		<path
   style="fill:#ffffff"
   d="m 562.3,772.55 -1.34,3.36 c 6.44,-1.8 12.43,-5.6 18.65,-6.94 0.89,19.47 3.33,38.96 2.89,58.45 8.22,-17.91 1.78,-40.31 2.01,-59.57 l 30.64,-12.32 0.89,-2.69 c -10.66,4.47 -20.87,6.95 -31.54,11.42 -1.34,-4.71 -1.56,-10.08 -1.34,-14.79 1.34,0.44 2.44,2.91 3.78,2.46 -1.78,-6.71 -4,-13.88 -7.34,-19.26 l -2.66,7.63 c 1.78,8.27 2.45,17.24 2,25.74 z"
   clip-path="url(#SVGID_00000026872820391876966590000011639630214089585051_)"
   id="path21" />
		<path
   style="fill:#ffffff"
   d="m 376.62,748.81 c 0.22,1.36 1.55,2.48 3.1,2.24 2.45,-1.34 2.45,-4.25 3.12,-6.49 l -3.12,2.9 c -4.43,-4.25 0.45,-9.63 0.68,-14.54 -2.44,4.7 -4.89,10.07 -3.78,15.89"
   clip-path="url(#SVGID_00000026872820391876966590000011639630214089585051_)"
   id="path22" />
		<path
   style="fill:#ffffff"
   d="m 458.35,747.7 c 0.44,2.23 0.23,5.37 3.34,4.92 2.66,-1.13 2.44,-4.25 3.11,-6.49 -1.11,1.12 -1.33,3.13 -3.11,2.91 -3.78,-4.47 -0.23,-9.85 0.89,-14.55 -2.45,4.03 -3.79,8.5 -4.23,13.21"
   clip-path="url(#SVGID_00000026872820391876966590000011639630214089585051_)"
   id="path23" />
		<path
   style="fill:#ffffff"
   d="m 594.95,749.71 c 0.22,1.57 1.33,3.13 3.32,2.91 2.23,-1.34 2.23,-4.25 3.12,-6.49 l -3.12,2.9 c -3.77,-4.03 -0.22,-10.51 0.45,-14.55 -2.66,4.48 -3.99,9.64 -3.77,15.23"
   clip-path="url(#SVGID_00000026872820391876966590000011639630214089585051_)"
   id="path24" />
		<path
   style="fill:#ffffff"
   d="m 506.33,745.91 -2.89,8.05 c 2.89,28.44 5.1,58.46 5.56,86.68 2.44,-4.93 3.77,-10.3 3.99,-16.13 l -3.32,-61.59 3.77,2.69 c -1.78,-6.94 -4,-13.44 -7.11,-19.7"
   clip-path="url(#SVGID_00000026872820391876966590000011639630214089585051_)"
   id="path25" />
		<path
   style="fill:#ffffff"
   d="m 426.36,747.71 c -2.88,5.14 -4.65,10.73 -4.65,16.79 0.44,1.57 2,1.57 3.11,2.01 2,-0.44 4.21,-1.34 4.89,-3.58 1.77,-3.81 -0.22,-8.06 -3.56,-10.31 l 1.33,-4.91 z m 2.23,12.08 c -0.67,1.34 -2.23,2.69 -4,2.46 h -1.11 c -0.89,-1.79 0.45,-3.82 1.11,-5.38 1.33,0.68 2.67,1.8 4,2.92"
   clip-path="url(#SVGID_00000026872820391876966590000011639630214089585051_)"
   id="path26" />
		<path
   style="fill:#ffffff"
   d="m 634.93,756.21 c -3.11,4.7 -5.55,10.29 -5.34,16.79 0.22,2.02 2.44,2.02 4,1.79 2.66,-0.67 4.66,-3.36 4.22,-6.27 0.66,-2.92 -1.34,-5.6 -3.79,-7.17 -0.2,-2.01 1.79,-3.8 0.91,-5.14 m 1.55,12.31 c -0.67,1.79 -2.89,2.46 -4.66,2.46 -1.56,-1.79 0,-3.81 0.66,-5.38 1.55,0.46 2.89,1.35 4,2.92"
   clip-path="url(#SVGID_00000026872820391876966590000011639630214089585051_)"
   id="path27" />
		<path
   style="fill:#ffffff"
   d="m 539.86,761.57 c -1.99,-1.79 -3.99,-3.36 -6.65,-4.03 l -2.89,6.27 7.11,4.93 2.88,-4.93 6.67,4.26 c 1.33,-2.02 2.87,-4.04 3.33,-6.5 -2.22,-2.24 -4.88,-3.13 -7.1,-4.7 -1.12,1.57 -1.79,4.04 -3.35,4.7"
   clip-path="url(#SVGID_00000026872820391876966590000011639630214089585051_)"
   id="path28" />
		<path
   style="fill:#ffffff"
   d="m 434.15,779.05 c 8.66,-2.69 17.98,-6.49 22.65,-15.46 1.11,0.9 2.88,2.47 4.22,0.9 2.89,2.92 3.11,7.39 4.65,10.74 2.24,-4.46 2.02,-10.29 5.12,-14.32 l 2.89,1.8 c 0.67,-0.68 0.67,-1.58 1.11,-2.25 -0.45,-1.79 -1.77,-3.81 -4,-3.35 -3.76,3.13 -2.88,9.18 -5.12,11.88 -1.1,-3.81 -1.76,-8.98 -6.64,-10.32 -5.34,10.74 -17.33,14.33 -24.88,20.38"
   clip-path="url(#SVGID_00000026872820391876966590000011639630214089585051_)"
   id="path29" />
		<path
   style="fill:#ffffff"
   d="m 368.62,767.41 c 5.11,0.44 11.99,-0.91 16.22,1.57 -4.89,4.02 -10.88,5.6 -15.33,9.84 9.33,-1.79 20.21,-6.93 22.42,-17.24 -4.43,-2.46 -10.21,-1.78 -15.75,-1.78 -4.45,-0.24 -5.78,4.47 -7.56,7.61"
   clip-path="url(#SVGID_00000026872820391876966590000011639630214089585051_)"
   id="path30" />
		<path
   style="fill:#ffffff"
   d="m 611.6,778.82 c 0.44,1.12 1.55,2.92 3.11,2.24 2.44,-1.34 2.44,-4.24 3.33,-6.49 -1.1,0.66 -1.77,2.9 -3.56,2.9 -3.55,-4.47 0.45,-9.85 0.89,-14.54 -2.21,4.93 -4.88,9.86 -3.77,15.89"
   clip-path="url(#SVGID_00000026872820391876966590000011639630214089585051_)"
   id="path31" />
		<path
   style="fill:#ffffff"
   d="m 554.96,767.18 c -3.11,6.71 -7.55,13.42 -12.21,19.25 l -7.33,-7.61 c 0.89,-1.35 2.67,-0.45 4,-0.67 v -0.68 c -3.33,-2.45 -6.89,-5.14 -10.44,-6.04 -5.32,9.4 7.11,14.11 10,21.5 -4.21,7.39 -8.88,15.23 -7.11,24.85 0.66,3.13 4.44,4.26 7.11,3.13 5.99,-2.23 13.33,-7.16 13.55,-14.78 0,-6.72 -2.23,-12.54 -6.89,-17.48 4.21,-6.7 10.66,-13.19 9.32,-21.47 m -5.11,38.07 c -3.77,4.26 -8.87,7.84 -14.65,6.73 -2.21,-1.8 -0.22,-4.26 0.22,-6.04 l 6.45,-10.08 c 3.55,1.99 5.99,6.02 7.98,9.39"
   clip-path="url(#SVGID_00000026872820391876966590000011639630214089585051_)"
   id="path32" />
		<path
   style="fill:#ffffff"
   d="m 597.84,781.74 c 1.55,-2.02 2.45,-4.26 2.89,-6.5 -2,-2.23 -4.45,-3.36 -7.11,-4.47 l -2.9,6.26 z"
   clip-path="url(#SVGID_00000026872820391876966590000011639630214089585051_)"
   id="path33" />
		<path
   style="fill:#ffffff"
   d="m 446.58,792.71 35.54,-14.33 0.66,-2.23 c -11.78,4.24 -23.54,8.04 -34.87,12.97 z"
   clip-path="url(#SVGID_00000026872820391876966590000011639630214089585051_)"
   id="path34" />
		<path
   style="fill:#ffffff"
   d="m 520.99,799.65 c 3.11,-0.45 2.88,-4.03 3.55,-6.49 -1.11,1.12 -1.34,3.58 -3.55,2.91 -3.11,-4.47 0.44,-10.08 1.11,-14.12 -2.67,4.48 -4,9.64 -3.77,15.24 -0.23,1.12 1.33,3.14 2.66,2.46"
   clip-path="url(#SVGID_00000026872820391876966590000011639630214089585051_)"
   id="path35" />
		<path
   style="fill:#ffffff"
   d="m 643.36,809.96 c 0.22,-8.28 -2.45,-16.36 -9.76,-20.85 -3.78,-1.34 -7.11,1.12 -9.55,4.04 -2.22,3.14 -2.88,7.4 -2.44,10.97 2.88,8.74 15.76,0.9 18.88,8.74 -9.12,11.19 -20.43,19.92 -33.75,22.62 -3.33,-0.22 -7.34,-0.45 -9.55,-3.14 4.88,-4.26 11.54,-8.29 12.43,-15.01 3.78,-8.95 -3.56,-14.99 -5.33,-22.16 l 2.88,0.67 c -2.67,-3.37 -5.55,-6.96 -8.66,-9.42 -4.45,11.2 7.33,18.82 9.55,28.68 -3.99,5.15 -9.32,8.06 -14.43,11.65 -2.22,-7.17 1.56,-14.11 1.99,-20.38 -3.11,6.94 -4.43,14.55 -5.1,22.4 -5.33,3.36 -11.33,5.59 -18,6.5 -3.56,0.22 -6.23,-1.8 -8.66,-4.26 4.67,-3.58 9.55,-8.06 10.66,-13.67 3.78,-8.95 -3.77,-14.99 -5.55,-22.16 l 2.9,0.67 c -2.44,-3.37 -5.33,-6.96 -8.44,-9.42 -4.67,10.54 5.77,17.93 9.1,26.88 v 2.47 c -3.56,3.58 -7.55,6.95 -11.55,8.73 -0.43,-6.93 2.23,-12.99 2.68,-18.57 -3.11,6.25 -4.46,13.43 -5.12,20.82 -8.22,5.15 -19.55,12.09 -28.88,5.15 -7.54,-6.94 -1.77,-18.36 -1.1,-25.97 -1.34,2.24 -2.01,4.91 -2.89,7.37 -2.23,9.42 -3.78,21.96 5.1,28.68 10.45,4.03 20.44,-2.47 29.11,-8.06 1.34,2.67 2.45,5.37 5.11,7.39 9.33,5.37 19.31,-1.13 27.53,-5.6 1.34,2.9 3.78,5.16 6.23,6.94 8.88,3.8 17.1,-1.12 23.98,-5.82 7.97,-7.17 21.07,-14.79 20.63,-26.88 m -8.43,-8.97 c -2.89,-1.11 -8.67,1.36 -8.88,-3.13 1.11,-1.8 3.77,-1.12 5.31,-0.67 1.34,0.67 2.45,2 3.57,3.13 z"
   clip-path="url(#SVGID_00000026872820391876966590000011639630214089585051_)"
   id="path36" />
		<path
   style="fill:#ffffff"
   d="m 386.39,808.16 c 0.44,1.8 1.11,4.03 3.56,3.35 1.99,-1.34 2.89,-3.8 2.89,-6.27 -1.12,0.9 -1.33,3.15 -3.11,2.92 -4,-4.49 0.22,-9.85 0.88,-14.56 -2.43,4.26 -4.44,8.95 -4.22,14.56"
   clip-path="url(#SVGID_00000026872820391876966590000011639630214089585051_)"
   id="path37" />
		<path
   style="fill:#ffffff"
   d="m 368.62,819.13 c 0.22,1.12 1.34,2.92 3.11,2.24 2.44,-1.34 2.44,-4.25 3.12,-6.49 -0.88,0.67 -1.56,2.9 -3.33,2.9 -3.57,-4.48 0.21,-9.85 0.88,-14.55 -2.44,4.71 -4.89,10.07 -3.78,15.9"
   clip-path="url(#SVGID_00000026872820391876966590000011639630214089585051_)"
   id="path38" />
		<path
   style="fill:#ffffff"
   d="m 424.15,805.47 c 0.22,-1.8 -1.78,-2.68 -3.54,-2.24 -1.57,0.89 -2.44,2.47 -2.44,4.26 l 2.89,-0.69 c 2.44,3.58 -2.44,6.73 -4.45,9.63 3.32,-1.78 7.32,-6.26 7.54,-10.96"
   clip-path="url(#SVGID_00000026872820391876966590000011639630214089585051_)"
   id="path39" />
		<polygon
   style="fill:#ffffff"
   points="624.71,846.22 624.71,849.14 654.7,827.42 654.7,823.84 "
   clip-path="url(#SVGID_00000026872820391876966590000011639630214089585051_)"
   id="polygon39" />
		<path
   style="fill:#ffffff"
   d="m 520.76,837.05 c -1.78,0.89 -2.44,2.46 -2.44,4.25 l 2.67,-0.67 c 3.78,3.59 -3.33,6.94 -4,10.07 4,-2.47 6.66,-6.49 7.32,-10.97 0.23,-2.01 -1.55,-3.13 -3.55,-2.68"
   clip-path="url(#SVGID_00000026872820391876966590000011639630214089585051_)"
   id="path40" />
		<path
   style="fill:#231f20"
   d="m 343.07,349.7 c -3.36,-0.35 -3.69,-4.55 -6.69,-5.24 -6.5,3.28 -7.8,10.77 -10.7,16.45 -0.82,1.58 -2.44,3.39 -4.53,2.93 -4.4,-2.96 -2.41,-9.65 -2.63,-13.96 -1.74,4.19 -1.76,9.98 -0.03,14.3 0.92,1.37 1.96,3.41 4.05,3.19 6.61,-3.62 5.11,-12.14 10.69,-17.01 4.65,-4.98 4.62,4.67 9.27,3.89 2.66,-0.22 5.22,-0.79 7.06,-2.7 -0.46,3.29 -1.51,7.82 0.79,10.78 5.1,1.95 8.34,-3.72 12.18,-5.53 2.41,6.71 -6.85,5.65 -7.32,10.07 l 6.61,-3.83 c 0.57,1.81 0.81,3.63 2.42,4.99 1.5,1.48 4.05,1.38 5.91,0.93 8.94,-4.07 18.34,-12.91 20.34,-22.55 l 8,-4.86 c 1.97,0 3.81,2.28 6.14,2.4 5.9,1.26 10.54,-3.15 13.92,-7.35 l 0.57,2.95 c 0.91,1.81 3,1.72 4.86,1.72 3.24,-0.56 6.03,-4.19 7.89,-6.23 0.23,1.35 0.57,2.6 1.61,3.63 1.16,0.79 2.43,0.46 3.83,0.35 2.55,-0.9 3.36,-3.5 4.53,-5.44 0.81,1.58 1.94,3.86 4.03,4.1 2.32,0.11 4.53,-1.23 5.69,-2.71 0.1,3.74 1.14,7.84 4.26,10.22 5.55,0.81 5.68,-5.77 7.66,-8.95 1.4,-2.49 3.61,-6.47 7.08,-5.99 1.96,4.2 6.12,7.84 11,8.2 3.54,0.48 7.09,0.75 10.64,0.89 l 0.56,-1.53 -0.14,-2.81 c -5.55,-0.3 -11.04,-1.05 -16.27,-2.48 -2.53,-2.04 -2.75,-5.91 -6.12,-6.71 -6.13,2.02 -7.31,8.6 -9.88,13.37 -0.81,1.6 -2.55,3.4 -4.64,2.6 -3.11,-2.05 -3.35,-6.14 -2.87,-9.77 2.92,-10.9 -0.29,-22.26 -0.38,-33.38 l 0.36,-0.34 c 0.58,0.34 1.03,1.6 1.85,1.14 -0.8,-3.41 -2.31,-6.59 -3.79,-9.76 0.34,-0.68 -0.35,-1.82 0.57,-2.27 6.59,5.81 10.85,12.86 13.63,20.47 2.98,7.05 -0.04,14.42 -3.65,20.21 3.25,-2.95 4.99,-6.69 5.82,-10.77 2,-14.31 -4.68,-27.15 -16.6,-35.01 -1.51,3.17 0.23,6.69 -0.83,9.98 0.2,12.37 2.14,24.88 2.11,37.7 l -1.05,1.7 c -1.5,1.14 -3.13,1.82 -5.22,1.58 -1.97,-0.57 -2.43,-2.73 -2.07,-4.78 h -0.35 c -1.28,2.05 -2.68,4.55 -4.76,5.79 -1.27,0.57 -3.14,1.01 -4.29,-0.36 -1.15,-1.14 -0.68,-2.61 -0.34,-3.98 -2.55,2.04 -4.52,5.78 -7.88,6.57 -1.75,0.55 -4.07,0.55 -5.45,-0.69 -1.04,-1.15 -0.33,-2.51 -0.33,-3.87 -2.21,1.02 -3.72,3.63 -5.81,5.33 -3.12,2.15 -8.13,3.61 -11.36,1.33 2.67,-2.26 6.61,-3.04 7.19,-7.02 -4.62,-3.07 -11.34,-1.95 -16.22,-0.37 -3.35,0.67 -5.91,3.27 -6.15,6.68 1.05,-0.56 1.97,-1.12 3.24,-1.12 2.09,-0.35 3.7,1.03 5.21,2.28 l -6.37,3.62 c -1.05,-1.48 -1.85,-3.3 -3.58,-4.1 -1.5,-0.69 -3.47,-0.35 -4.52,0.89 -1.74,2.15 -3.37,4.64 -2.68,7.59 1.96,3.19 6.48,0.82 9.15,0.48 l 0.1,1.47 c -5.11,7.14 -12.43,15.54 -21.81,15.85 -1.28,-0.46 -2.79,-1.49 -3.24,-2.85 3.24,-2.26 6.85,-3.73 10.09,-5.87 l 0.71,-1.47 c -3.49,1.69 -6.85,3.73 -10.22,5.76 h -0.81 l 0.25,-4.32 c 3.48,-3.74 8,-6.79 11.26,-10.87 1.05,-2.84 1.87,-6.92 -0.67,-9.31 -4.29,-2.06 -9.49,-1.95 -13.19,-5.14 0.81,-0.45 2.07,-0.33 2.44,-1.12 -2.09,-0.93 -4.52,-1.61 -6.72,-1.61 v 3.06 c 3.22,5.12 9.6,6.73 15.15,8.21 1.04,0.57 2.78,0.79 3.01,2.28 -6.28,6.23 -13.12,12.46 -20.55,16.64 -1.27,0.45 -2.55,0.34 -3.47,-0.69 -1.04,-4.32 -0.22,-9.31 3.85,-12.03 0.35,1.25 -0.59,2.73 -0.59,3.74 1.39,-1.92 2.08,-3.96 2.33,-6.23 0.22,-0.8 -0.11,-1.82 -0.93,-1.83 -3.85,2.61 -6.52,9.19 -12.21,8.5 m 60.75,-15.52 -3.49,2.27 -3.35,-1.95 c 2.09,-0.57 4.64,-1 6.84,-0.32 m -22.27,10.05 -0.12,-1.03 c 1.28,-1.24 3.37,-1.12 4.51,0.59 -1.26,0.67 -2.88,0.79 -4.39,0.44"
   clip-path="url(#SVGID_00000026872820391876966590000011639630214089585051_)"
   id="path41" />
		<path
   style="fill:#231f20"
   d="m 506.87,338.9 c 8.14,-0.85 16.03,-2.7 23.33,-5.55 0.47,1.14 0.57,2.5 1.15,3.53 1.03,2.16 3.11,2.85 5.44,2.62 1.38,-0.33 2.32,-1.7 2.89,-2.83 1.17,-2.95 0.96,-7.04 -0.88,-9.41 -0.36,1.01 -0.71,2.03 -1.06,2.94 -0.35,1.82 2.08,3.3 0.45,4.78 -1.28,0.44 -3.36,0.55 -4.63,-0.37 -1.61,-1.36 -1.27,-3.85 -1.27,-5.56 -7.87,2.85 -16.68,4.83 -25.68,5.68 l -0.15,3.1 z"
   clip-path="url(#SVGID_00000026872820391876966590000011639630214089585051_)"
   id="path42" />
		<path
   style="fill:#231f20"
   d="m 596.56,299.45 c 0.8,-0.11 1.75,-0.67 1.85,-1.57 0.81,-2.16 -0.45,-3.86 -1.96,-5.24 l 0.59,-2.26 c -2.22,1.35 -2.44,4.76 -3.04,7.48 0,1.13 1.39,1.92 2.56,1.59 m -1.04,-4.66 c 0.81,0.35 1.73,0.91 2.2,1.71 -0.36,0.79 -1.5,1.36 -2.55,0.9 -0.69,-0.79 0.12,-1.81 0.35,-2.61"
   clip-path="url(#SVGID_00000026872820391876966590000011639630214089585051_)"
   id="path43" />
		<path
   style="fill:#231f20"
   d="m 418.62,297.77 c 0.81,-2.03 0.12,-4.43 -1.85,-5.57 0.24,-0.79 0.93,-1.7 0.71,-2.28 -0.93,0.46 -1.05,1.59 -1.51,2.39 -0.71,2.27 -2.56,5.67 -0.37,7.37 1.16,-0.1 2.32,-0.89 3.02,-1.91 m -2.66,-2.96 c 0.92,0 1.61,0.57 2.31,1.26 -0.7,0.79 -1.63,1.46 -2.68,1.46 -0.45,-0.9 -0.11,-1.92 0.37,-2.72"
   clip-path="url(#SVGID_00000026872820391876966590000011639630214089585051_)"
   id="path44" />
		<path
   style="fill:#231f20"
   d="m 583.91,302.03 c 1.17,-0.46 1.4,-1.92 1.64,-3.07 -0.35,0.45 -0.93,1.36 -1.62,1.25 -1.97,-2.17 -0.1,-5.34 0.25,-7.26 -0.93,2.15 -2.33,4.19 -1.98,6.81 -0.01,1.13 0.45,2.04 1.71,2.27"
   clip-path="url(#SVGID_00000026872820391876966590000011639630214089585051_)"
   id="path45" />
		<path
   style="fill:#231f20"
   d="m 616.24,302.34 c 0.93,-0.79 0.93,-1.81 1.28,-2.84 l -1.51,1.14 c -2.54,-1.95 0.01,-5 0.25,-7.26 -1.28,2.15 -2.55,4.65 -1.98,7.49 -0.01,0.9 1.03,1.69 1.96,1.47"
   clip-path="url(#SVGID_00000026872820391876966590000011639630214089585051_)"
   id="path46" />
		<path
   style="fill:#231f20"
   d="m 558.66,303.33 c 1.04,-0.68 1.51,-1.92 1.51,-3.17 -0.35,0.57 -0.94,1.46 -1.62,1.35 -1.86,-2.27 -0.11,-5.11 0.48,-7.38 -1.29,2.16 -2.45,4.43 -2.23,7.27 0.24,0.9 0.69,1.93 1.86,1.93"
   clip-path="url(#SVGID_00000026872820391876966590000011639630214089585051_)"
   id="path47" />
		<path
   style="fill:#231f20"
   d="m 403.66,304.43 c 1.51,-0.67 1.74,-2.26 2.09,-3.63 -0.57,0.46 -0.93,1.81 -2.08,1.69 -1.28,-2.26 0.23,-5.09 0.7,-7.37 -0.92,2.28 -2.21,4.42 -2.21,7.15 0.22,0.8 0.22,2.38 1.5,2.16"
   clip-path="url(#SVGID_00000026872820391876966590000011639630214089585051_)"
   id="path48" />
		<path
   style="fill:#231f20"
   d="m 550.26,327.95 c -0.46,1.25 -1.51,2.49 -1.28,3.74 l 1.51,-0.34 c 3.02,-0.45 4.86,1.94 6.83,3.88 -4.05,1.68 -8.47,2.24 -12.52,3.82 -7.41,0.77 -9.88,11.9 -17.87,10.63 -5.43,-4.1 0.03,-10.33 0.5,-14.75 -2.09,3.17 -3.6,6.57 -3.84,10.43 -0.25,3.18 1.25,6.03 3.92,7.62 5.55,1.94 7.99,-4.41 12.05,-7.02 6.04,-4.52 13.69,-5.19 20.53,-7.66 3.01,3.53 6.82,5.81 11.34,5.36 1.97,-0.57 3.14,-2.6 4.07,-4.19 2.91,-10.44 -0.64,-21.36 -0.16,-32.02 4.83,8.07 11.2,15.47 11.98,25.23 -0.24,4.77 -4.07,8.72 -8.02,11.33 l 0.01,-7.03 -0.69,1.7 c -0.94,3.17 0.22,7.83 -3.73,9.07 1.16,-0.11 2.09,-0.79 3.02,-1.24 0.57,0.24 0.34,0.79 0.34,1.14 1.15,3.41 1.83,8.62 6.46,8.87 4.76,-2.94 4.19,-8.95 8.95,-12.12 1.04,-0.46 2.66,-1.14 3.59,0 2.08,3.98 4.97,9.33 10.52,8.88 1.74,-0.33 3.61,-1.46 4.52,-3.05 1.63,-2.38 0.48,-5.68 -0.21,-7.84 4.64,3.99 8.2,11.83 15.39,10.6 2.54,-0.67 3.01,-3.28 3.72,-5.33 l 0.57,3.07 c 2.08,5.91 8.66,10.12 14.34,11.28 l 0.35,-2.72 c -0.22,-1.35 -1.97,-1.93 -3,-2.62 -1.85,-1.81 -5.09,-2.85 -5.44,-5.46 l 9.16,-1.57 c 1.03,2.27 3.01,4.66 5.08,6.03 1.39,0.57 3.47,1.25 4.18,-0.68 0.93,-2.94 0.83,-6.58 -1.71,-8.75 -1.75,-1.14 -3.95,-1.48 -6.04,-1.03 -1.49,-4.44 -2.06,-9.43 -2.05,-14.2 l 8.71,-0.77 c 0.81,0.11 1.27,-1.03 1.04,-1.48 l -9.85,0.88 c -0.57,-5.45 -1.02,-11.71 -0.77,-17.49 l 1.96,1.83 c -0.68,-3.76 -2.42,-7.16 -3.68,-10.8 -0.58,0.23 -0.82,1.46 -1.29,2.26 0.68,7.84 0.42,16.35 1.45,24.19 -2.09,1.13 -6.03,-0.36 -6.49,2.48 l 6.48,-0.66 c 0.8,4.66 0.91,9.77 1.83,14.2 l -6.38,1.34 c -2.2,0.57 -3.25,2.94 -3.72,4.76 l -0.46,-0.57 c -4.96,-11.25 -2.71,-25.55 -4.43,-38.27 -0.68,-4.09 -1.13,-8.87 -2.75,-12.05 l -0.94,2.96 c 2.17,13.53 2.71,27.71 2.58,42.13 -0.01,1.36 -1.29,2.26 -2.45,2.83 -2.31,0.67 -4.29,-0.46 -6.02,-1.49 -9.71,-9.79 -20.23,-20.38 -30.63,-28.69 8.01,-4.41 17.16,-6.09 26.2,-8 2.66,0.01 6.49,-1.24 7.87,1.38 -2.44,2.95 -6.5,5.32 -6.85,9.29 2.33,-4.65 8.93,-6.57 8.72,-12.24 -1.15,-2.84 -5.2,-2.05 -7.88,-1.94 -9.73,1.66 -19.69,3.12 -28.05,8.2 -0.93,1.94 -1.06,4.43 -0.82,6.6 l 16.18,16.04 c 2.42,2.84 5.08,5.69 5.77,9.32 -1.51,1.36 -3.36,1.92 -5.56,1.58 -5.09,-0.35 -5.77,-6.03 -8.9,-8.99 -6.27,-0.69 -8.02,6.57 -10.46,10.43 -0.69,1.25 -1.97,3.27 -3.94,2.59 -3.01,-1.03 -3.47,-4.32 -3.81,-7.04 3.37,-2.15 7.32,-4.98 8.82,-8.83 3.51,-13.63 -6.43,-24.2 -12.3,-35.35 -1.51,-1.7 -1.39,-4.55 -3.25,-5.69 -0.69,1.71 -1.85,3.96 -0.24,5.55 0.79,11.71 1.92,23.18 2.13,34.99 -0.13,1.02 -0.36,2.15 -1.51,2.5 -3.25,1.24 -6.84,-0.02 -9.04,-2.18 2.67,-1.36 6.84,-1.01 7.19,-4.88 -1.84,-1.81 -4.05,-3.19 -6.47,-3.97 -4.27,-1.24 -10.17,-1.93 -14.36,-0.01 m 104.2,23.31 v 0.56 c -1.51,-0.11 -2.9,-1.02 -3.82,-2.39 1.52,0 3.02,0.68 3.82,1.83 m -89.85,-18.62 -3.48,1.24 -3.24,-2.95 c 2.44,0.11 4.76,0.35 6.72,1.71"
   clip-path="url(#SVGID_00000026872820391876966590000011639630214089585051_)"
   id="path49" />
		<path
   style="fill:#231f20"
   d="m 427.18,303.36 c -3.13,3.39 -7.19,5.31 -10.45,8.25 4.18,-1.81 8.36,-4.18 11.37,-8.15 l 1.49,0.68 c 0.13,-0.67 1.17,-1.46 0.36,-2.15 -1.73,-0.23 -0.35,-1.82 -0.57,-2.72 0.7,-3.41 -3.01,-1.37 -3.6,0.1 -1.37,1.48 0.12,3.42 1.4,3.99 m 1.05,-3.29 -0.11,1.02 c -0.59,-0.22 -1.17,-0.57 -1.51,-1.03 0.11,-0.57 1.74,-1.25 1.62,0.01"
   clip-path="url(#SVGID_00000026872820391876966590000011639630214089585051_)"
   id="path50" />
		<path
   style="fill:#231f20"
   d="m 654.92,308.33 c 1.17,-2.37 -0.45,-4.54 -1.83,-6.24 0.22,-0.67 0.93,-1.48 0.7,-2.16 -2.09,2.16 -3.85,5.78 -2.34,8.86 1.03,0.46 2.65,0.79 3.47,-0.46 m -2.65,-3.98 c 0.93,0.47 1.97,1.37 2.19,2.28 -0.82,0.34 -1.74,0.68 -2.54,0.34 -0.7,-0.8 0,-1.82 0.35,-2.62"
   clip-path="url(#SVGID_00000026872820391876966590000011639630214089585051_)"
   id="path51" />
		<path
   style="fill:#231f20"
   d="m 633.96,303.29 c 1.16,1.7 1.61,3.64 2.07,5.57 -0.81,0.67 -1.39,1.59 -1.15,2.84 0.34,-0.35 1.62,-1.14 2.19,0 l -2.33,0.9 c -0.81,4.65 1.37,9.43 1.24,14.08 0.71,-4.08 -0.2,-8.3 -1.13,-12.26 1.28,-0.67 2.9,-0.57 4.41,-0.79 1.51,-2.04 -1.5,-3.63 -2.54,-4.88 l 1.41,-5.11 c 0.58,-2.04 1.73,0 2.42,0.36 l 0.24,-0.11 c 0.46,-1.03 -0.11,-2.05 -0.92,-2.85 -3.01,-0.35 -2.22,3.63 -3.26,5.45 -0.93,-2.27 -1.14,-5.34 -3.94,-6.37 l -1.16,1.71 c 0.59,0.66 1.41,2.03 2.45,1.46"
   clip-path="url(#SVGID_00000026872820391876966590000011639630214089585051_)"
   id="path52" />
		<path
   style="fill:#231f20"
   d="m 440.25,309.4 c 1.27,-0.68 1.52,-2.15 1.86,-3.4 -0.58,0.33 -0.8,1.7 -1.85,1.47 -1.61,-2.16 0.12,-5.22 0.48,-7.26 -1.17,2.38 -2.21,4.76 -1.99,7.71 0.12,0.69 0.58,1.6 1.5,1.48"
   clip-path="url(#SVGID_00000026872820391876966590000011639630214089585051_)"
   id="path53" />
		<path
   style="fill:#231f20"
   d="m 607.09,300.61 c -6.13,1.12 -12.52,1.67 -18.43,3.26 l -0.35,1.46 18.43,-3.58 z"
   clip-path="url(#SVGID_00000026872820391876966590000011639630214089585051_)"
   id="path54" />
		<path
   style="fill:#231f20"
   d="m 534.32,309.63 18.31,-5.06 0.59,-1.25 c -3.82,0.9 -7.64,1.8 -11.36,2.7 -2.43,1.35 -6.73,0.44 -7.54,3.61"
   clip-path="url(#SVGID_00000026872820391876966590000011639630214089585051_)"
   id="path55" />
		<path
   style="fill:#231f20"
   d="m 409.91,307.73 1.16,0.8 c 0.46,-0.46 0.46,-1.14 0.46,-1.81 l -0.8,-1.03 c -3.12,0.78 -2.44,4.42 -3.49,6.69 -0.47,-1.59 -0.92,-3.07 -2.19,-4.44 -0.58,-0.23 -1.49,-0.9 -1.97,0 -0.45,0.79 -1.5,1.81 -0.23,2.5 0.57,0.34 1.28,0.35 1.74,-0.11 1.38,1.48 2.07,3.42 1.95,5.34 -3.13,3.85 -7.89,6.45 -11.26,9.5 3.02,-1.46 6.03,-2.82 8.59,-5.19 4.28,-3.16 3.24,-8.62 6.04,-12.25"
   clip-path="url(#SVGID_00000026872820391876966590000011639630214089585051_)"
   id="path56" />
		<path
   style="fill:#231f20"
   d="m 346.53,311.44 c -0.57,0.46 -1.04,1.82 -2.09,1.82 -1.27,-2.28 0.26,-5 0.72,-7.39 -1.4,2.73 -2.9,6.46 -1.3,9.31 2.08,0.01 2.08,-2.38 2.67,-3.74"
   clip-path="url(#SVGID_00000026872820391876966590000011639630214089585051_)"
   id="path57" />
		<path
   style="fill:#231f20"
   d="m 545.32,313.41 18.55,-4.73 0.34,-1.13 c -6.26,1.24 -12.3,2.69 -18.2,4.39 z"
   clip-path="url(#SVGID_00000026872820391876966590000011639630214089585051_)"
   id="path58" />
		<path
   style="fill:#231f20"
   d="m 390.89,314.73 1.16,0.46 c 2.66,-2.15 -2.44,-2.38 -0.21,-4.76 0,-0.8 0.23,-2.05 -0.93,-1.94 -1.62,0.68 -3.25,2.39 -3.25,4.2 0.23,1.02 1.39,1.25 1.97,1.82 -2.9,3.74 -7.55,5.88 -10.33,8.94 4.28,-1.81 8.45,-5.09 11.59,-8.72 m -1.84,-3.3 c 0.12,-0.78 1.63,-1.36 1.62,-0.21 l -0.11,1.02 c -0.59,-0.11 -1.06,-0.46 -1.51,-0.81"
   clip-path="url(#SVGID_00000026872820391876966590000011639630214089585051_)"
   id="path59" />
		<path
   style="fill:#231f20"
   d="m 460.85,319.45 c 0.82,-1.02 1.51,-2.16 1.74,-3.4 -0.46,-0.68 -1.15,-0.8 -1.73,-1.14 -3.13,-0.8 0.58,-2.61 0,-4.09 l -3.59,-2.17 -1.74,3.4 1.73,1.03 c 2.9,0.58 0.12,2.72 -0.01,4.09 z"
   clip-path="url(#SVGID_00000026872820391876966590000011639630214089585051_)"
   id="path60" />
		<path
   style="fill:#231f20"
   d="m 366.68,313.77 c 0.58,0.57 1.62,0.79 2.31,0.23 1.28,1.36 1.74,3.18 2.19,4.88 1.51,-2.15 1.06,-5.1 2.34,-7.37 0.47,-1.02 1.27,-0.11 1.85,0.23 0.58,-0.57 0.47,-1.24 0.47,-2.04 -0.35,-0.45 -0.8,-0.68 -1.38,-0.79 -2.44,1.35 -2.1,4.42 -2.8,6.69 -0.59,0.11 -0.47,-0.9 -0.7,-1.48 -0.57,-1.25 -1.37,-2.95 -3.11,-2.95 -2.57,5.55 -8.72,9.06 -13.24,13.02 4.64,-2.04 9.74,-5.66 12.07,-10.42"
   clip-path="url(#SVGID_00000026872820391876966590000011639630214089585051_)"
   id="path61" />
		<path
   style="fill:#231f20"
   d="m 317.86,333.17 c 2.9,-1.81 5.8,-3.6 8.36,-6.1 4.17,-3.29 3.95,-8.39 5.7,-12.7 0.35,-0.57 1.04,-0.57 1.39,0 0.93,0.57 0.82,-0.91 0.93,-1.46 -0.21,-0.58 -0.57,-0.81 -1.15,-1.15 -2.66,1.48 -2.2,5 -3.25,7.14 -0.22,-1.47 -0.81,-2.95 -2.08,-4.08 l -1.97,-0.01 c 0,0.91 -1.5,1.59 -0.47,2.49 0.47,0.47 1.73,0.68 1.97,-0.1 1.03,1.48 2.08,2.95 2.18,4.89 -3.24,4.18 -7.78,7.47 -11.61,11.08"
   clip-path="url(#SVGID_00000026872820391876966590000011639630214089585051_)"
   id="path62" />
		<path
   style="fill:#231f20"
   d="m 430.05,313.58 c -1.4,1.69 1.25,4.2 -1.06,5.56 -3.13,0.56 -0.8,-3.18 -1.96,-4.56 l -0.82,1.03 c 0.23,1.24 0.22,2.72 0.46,4.43 0.12,0.47 0.69,1.37 1.5,1.14 1.16,-0.33 1.75,-1.13 2.23,-2.15 l 0.91,1.14 c 0.57,-0.12 1.39,0.23 1.73,-0.35 2.09,-2.15 -0.33,-4.54 -0.44,-6.8 -1.29,1.7 0.1,3.4 0.56,4.99 -3.36,1.93 -1.6,-3.3 -3.11,-4.43"
   clip-path="url(#SVGID_00000026872820391876966590000011639630214089585051_)"
   id="path63" />
		<path
   style="fill:#231f20"
   d="m 353.36,313.17 c -6.38,3.16 -12.3,7.12 -18.44,10.85 l -0.47,1.82 17.99,-11.08 z"
   clip-path="url(#SVGID_00000026872820391876966590000011639630214089585051_)"
   id="path64" />
		<path
   style="fill:#231f20"
   d="m 662.79,356.04 -1.9,-31.57 0.36,-0.34 1.84,2.05 c -0.91,-3.86 -2.18,-7.62 -3.9,-11.02 l -1.29,3.29 c 1.37,14.88 2.59,30.32 2.68,45.08 1.51,-2.16 1.98,-4.77 2.21,-7.49"
   clip-path="url(#SVGID_00000026872820391876966590000011639630214089585051_)"
   id="path65" />
		<path
   style="fill:#231f20"
   d="m 542.17,323.73 c 0.12,0.8 0.92,1.49 1.72,1.49 1.16,-0.68 1.4,-1.93 1.52,-3.18 -0.35,0.57 -0.93,1.59 -1.74,1.35 -1.61,-2.27 0.01,-5.22 0.47,-7.15 -1.39,2.15 -2.09,4.65 -1.97,7.49"
   clip-path="url(#SVGID_00000026872820391876966590000011639630214089585051_)"
   id="path66" />
		<path
   style="fill:#231f20"
   d="m 651.52,325.58 c 1.04,-0.56 1.51,-1.69 1.51,-2.95 -0.35,0.68 -0.92,1.13 -1.63,1.13 -1.96,-2.16 0.01,-5.22 0.37,-7.15 -1.4,2.15 -2.22,4.43 -2.1,7.14 0.23,0.91 0.93,1.72 1.85,1.83"
   clip-path="url(#SVGID_00000026872820391876966590000011639630214089585051_)"
   id="path67" />
		<path
   style="fill:#231f20"
   d="m 607.85,321.06 c 0.58,0.35 0.12,1.24 1.04,1.14 0.47,-0.12 1.27,-0.34 0.93,-1.13 -0.46,-1.14 -1.85,-1.49 -3.01,-1.95 -2.08,-0.45 -5.45,-0.8 -6.84,1.02 1.5,3.4 6.59,4.55 7.06,8.3 -3.47,-2.62 -7.87,-5.01 -10.18,-8.54 -0.36,4.88 5.54,6.95 8.78,9.32 0.94,0.24 2.21,0.01 2.91,-1.12 0.48,-4.2 -5.2,-4.78 -6.7,-8.3 1.96,-0.57 4.27,0.34 6.01,1.26"
   clip-path="url(#SVGID_00000026872820391876966590000011639630214089585051_)"
   id="path68" />
		<path
   style="fill:#231f20"
   d="m 415.3,327.28 c 0,0.91 0.58,1.93 1.73,1.7 1.04,-0.67 1.51,-2.83 1.51,-3.28 -0.58,0.45 -0.81,1.59 -1.74,1.47 -1.61,-2.38 0.13,-5.33 0.6,-7.38 -1.16,2.38 -2.33,4.66 -2.1,7.49"
   clip-path="url(#SVGID_00000026872820391876966590000011639630214089585051_)"
   id="path69" />
		<path
   style="fill:#231f20"
   d="m 580.28,323.13 -1.52,3.07 3.01,2.61 -1.52,2.84 c 1.27,1.02 2.55,2.27 3.82,3.07 0.7,-0.91 1.4,-1.93 1.52,-3.06 -0.7,-0.91 -1.86,-1.59 -2.78,-2.51 -0.11,-0.67 0.58,-1.02 0.81,-1.58 1.29,-2.15 -2.08,-3.29 -3.34,-4.44"
   clip-path="url(#SVGID_00000026872820391876966590000011639630214089585051_)"
   id="path70" />
		<path
   style="fill:#231f20"
   d="m 341.62,329.14 c -0.47,0.57 -1.4,1.36 -0.83,2.05 1.16,1.14 -0.35,3.4 1.27,4.31 1.63,0.11 2.44,-1.47 3.01,-2.49 l 0.81,1.03 c 0.93,0.22 1.64,-0.23 2.09,-1.02 1.17,-2.05 -0.21,-4.43 -0.9,-6.25 -1.75,2.04 1.37,3.75 0.21,5.45 -3.02,0.34 -1.03,-3.18 -2.31,-4.43 -2.2,1.25 1.51,4.2 -1.52,5.79 -3,0.22 -0.44,-3.41 -1.83,-4.44"
   clip-path="url(#SVGID_00000026872820391876966590000011639630214089585051_)"
   id="path71" />
		<path
   style="fill:#231f20"
   d="m 618.47,336.86 c 0.11,1.13 0.46,2.5 1.97,2.39 1.05,-0.56 1.28,-1.69 1.4,-2.71 l -1.4,1.13 c -2.42,-1.94 -0.33,-5.11 0.25,-7.37 -1.52,1.91 -1.98,4.17 -2.22,6.56"
   clip-path="url(#SVGID_00000026872820391876966590000011639630214089585051_)"
   id="path72" />
		<path
   style="fill:#231f20"
   d="m 635.84,340.98 c 0.23,0.57 0.93,1.48 1.61,1.48 1.39,-0.45 1.4,-2.26 1.51,-2.95 -0.34,0.46 -0.69,1.25 -1.51,1.14 -2.3,-2.28 0.12,-4.99 0.36,-7.38 -1.38,2.28 -2.42,4.88 -1.97,7.71"
   clip-path="url(#SVGID_00000026872820391876966590000011639630214089585051_)"
   id="path73" />
		<path
   style="fill:#231f20"
   d="m 328.04,338.42 c 1.16,0.35 2.44,1.26 3.36,1.15 0.57,-1.25 1.62,-2.26 1.51,-3.74 l -3.48,-1.37 -1.51,2.83 -3.7,-1.14 -1.51,3.74 3.47,1.48 c 0.93,-0.91 0.82,-2.27 1.86,-2.95"
   clip-path="url(#SVGID_00000026872820391876966590000011639630214089585051_)"
   id="path74" />
		<path
   style="fill:#231f20"
   d="m 317.25,348.61 c 1.61,-0.56 1.97,-2.82 1.97,-3.74 -0.23,0.79 -0.93,1.59 -1.75,1.81 -1.49,-2.28 0.02,-5.23 0.72,-7.49 -1.15,2.49 -2.45,4.98 -2.21,8.16 0.11,0.58 0.46,1.38 1.27,1.26"
   clip-path="url(#SVGID_00000026872820391876966590000011639630214089585051_)"
   id="path75" />
		<path
   style="fill:#231f20"
   d="m 532.61,343.57 c 0.82,-1.92 -2.19,-2.72 -3.35,-3.87 l -1.74,3.3 3,2.27 c 1.17,0.91 1.39,-1.13 2.09,-1.7"
   clip-path="url(#SVGID_00000026872820391876966590000011639630214089585051_)"
   id="path76" />
		<path
   style="fill:#231f20"
   d="m 435.77,344.59 -0.12,-1.36 -1.85,2.27 c -7.06,-1.61 -9.28,7.11 -14.51,9.84 2.8,-0.46 4.42,-3.4 6.51,-5.21 2.21,-3.96 6.72,-0.9 9.15,-4.06 0.82,0.58 2.33,0.36 2.91,-0.55 0.23,-0.92 0.94,-2.5 0.01,-3.3 -0.35,0.57 -0.82,1.36 -0.35,2.05 -0.37,0.55 -1.17,0.21 -1.75,0.32"
   clip-path="url(#SVGID_00000026872820391876966590000011639630214089585051_)"
   id="path77" />
		<path
   style="fill:#231f20"
   d="m 442.36,350.73 c 0,0.68 0.68,1.14 1.27,1.14 1.37,-0.46 1.85,-2.38 1.85,-3.41 -0.23,0.68 -0.93,1.48 -1.74,1.48 -1.85,-2.17 0.36,-4.89 0.59,-7.39 -1.15,2.51 -2.67,5.23 -1.97,8.18"
   clip-path="url(#SVGID_00000026872820391876966590000011639630214089585051_)"
   id="path78" />
		<path
   style="fill:#231f20"
   d="m 556.67,355.78 c 2.55,0.8 5.8,0.68 7.78,-1.12 -2.56,0 -5.92,0.89 -7.89,-0.81 -0.34,-3.4 5,-4.42 5.34,-7.49 -1.37,0.57 -3.24,2.38 -4.62,0.22 l 0.34,-0.78 c 0.36,-1.03 1.62,-0.69 1.74,0.22 0.35,-0.57 0.81,-0.91 0.93,-1.47 0,-0.68 -0.81,-1.02 -1.39,-0.91 -1.28,0.91 -3.01,2.27 -3.02,3.97 0.35,0.79 0.92,1.25 1.73,1.82 l -1.51,2.38 c -0.46,1.14 -0.93,3.18 0.57,3.97"
   clip-path="url(#SVGID_00000026872820391876966590000011639630214089585051_)"
   id="path79" />
		<polygon
   style="fill:#231f20"
   points="452.08,351.89 451.6,353.59 470.17,345.47 470.29,344.33 "
   clip-path="url(#SVGID_00000026872820391876966590000011639630214089585051_)"
   id="polygon79" />
		<path
   style="fill:#231f20"
   d="m 515.57,348.65 -3.7,-2.28 -1.51,3.29 3.69,2.4 1.52,-2.27 c 1.15,0.79 2.31,1.71 3.46,2.52 l 1.16,-1.82 c 1.64,-2.5 -2.07,-2.73 -3.11,-4.1 z"
   clip-path="url(#SVGID_00000026872820391876966590000011639630214089585051_)"
   id="path80" />
		<path
   style="fill:#231f20"
   d="m 399.71,359.49 c 2.44,-0.23 5.33,-1.69 6.26,-3.27 -2.44,0.78 -5,2.59 -7.77,1.11 0.13,-3.74 5.46,-5.21 5.35,-8.95 l -1.63,1.81 c -0.81,0.68 -1.96,0.68 -2.77,0 l 0.23,-1.14 c 0.48,-0.67 1.4,-0.9 1.85,-0.23 l 0.7,-1.7 -0.34,-0.57 c -1.73,0.67 -3.59,2.72 -3.83,4.76 0.12,1.02 0.93,1.14 1.61,1.59 -1.16,1.59 -1.73,3.17 -1.97,5.11 0.1,1.02 1.14,1.81 2.31,1.48"
   clip-path="url(#SVGID_00000026872820391876966590000011639630214089585051_)"
   id="path81" />
		<path
   style="fill:#231f20"
   d="m 412.45,355.09 c 0.12,0.68 0.47,1.7 1.5,1.47 1.4,-0.45 1.4,-2.15 1.87,-3.4 l -1.52,1.59 c -2.3,-1.82 0.03,-5.23 0.13,-7.38 -0.92,2.5 -2.33,4.77 -1.98,7.72"
   clip-path="url(#SVGID_00000026872820391876966590000011639630214089585051_)"
   id="path82" />
		<path
   style="fill:#231f20"
   d="m 572.43,356.27 c 0.12,0.68 0.81,1.36 1.62,1.36 1.4,-0.44 1.64,-2.49 1.52,-2.94 -0.35,0.45 -0.81,1.25 -1.51,1.12 -2.31,-2.04 0.13,-4.99 0.37,-7.37 -1.52,2.27 -2.44,4.99 -2,7.83"
   clip-path="url(#SVGID_00000026872820391876966590000011639630214089585051_)"
   id="path83" />
		<path
   style="fill:#231f20"
   d="m 594.1,359.28 c 2.08,-0.56 3.94,-2.72 3.94,-4.88 0,-1.02 -1.04,-1.71 -2.08,-1.49 -0.82,0.46 -0.93,1.36 -0.93,1.93 l 0.34,-0.11 c 0.58,-0.35 1.16,0.01 1.51,0.46 0.13,1.82 -1.74,2.96 -2.78,4.09"
   clip-path="url(#SVGID_00000026872820391876966590000011639630214089585051_)"
   id="path84" />
		<path
   style="fill:#231f20"
   d="m 620.26,366.38 c 0.23,0.79 1.04,1.36 1.83,1.37 0.93,-0.57 1.29,-1.71 1.29,-2.84 l -1.51,1.13 c -2.08,-2.16 -0.21,-4.99 0.36,-7.25 -1.61,2.03 -2.32,4.87 -1.97,7.59"
   clip-path="url(#SVGID_00000026872820391876966590000011639630214089585051_)"
   id="path85" />
		<path
   style="fill:#231f20"
   d="M 651.65,365.78 H 652 c 1.62,-0.68 3.83,-2.48 3.59,-4.54 0,-1.13 -1.14,-1.59 -2.19,-1.59 -0.57,0.35 -0.81,1.02 -0.93,1.82 0.7,-0.35 1.5,-0.23 1.97,0.46 0.34,1.82 -1.98,2.72 -2.79,3.85"
   clip-path="url(#SVGID_00000026872820391876966590000011639630214089585051_)"
   id="path86" />
		<path
   style="fill:#231f20"
   d="m 341.31,363.31 c -0.36,1.49 -1.52,-0.23 -2.32,-0.23 -2.65,-1.94 -2.43,2.16 -3.37,3.29 l 3.71,1.48 1.51,-2.84 3.46,1.38 c 0.59,-1.24 1.74,-2.38 1.52,-3.74 l -3.48,-1.49 z"
   clip-path="url(#SVGID_00000026872820391876966590000011639630214089585051_)"
   id="path87" />
		<path
   style="fill:#231f20"
   d="m 638.43,371.2 1.04,-0.34 c 1.63,-1.03 3.37,-2.72 2.91,-4.88 -0.22,-0.8 -1.04,-1.14 -1.72,-1.14 -1.05,0.11 -1.18,1.24 -1.05,1.92 l 0.11,-0.11 c 0.7,-0.12 1.28,0.01 1.73,0.58 0,1.81 -2.09,2.71 -3.02,3.97"
   clip-path="url(#SVGID_00000026872820391876966590000011639630214089585051_)"
   id="path88" />
		<path
   style="fill:#231f20"
   d="m 329.82,372.38 c 0.11,0.79 0.57,1.7 1.63,1.36 1.26,-1.02 1.5,-2.39 1.74,-3.74 -0.58,0.68 -0.93,1.93 -1.98,1.7 -1.38,-2.5 0.48,-4.88 0.83,-7.26 -1.4,2.37 -2.21,4.98 -2.22,7.94"
   clip-path="url(#SVGID_00000026872820391876966590000011639630214089585051_)"
   id="path89" />
		<path
   style="fill:#231f20"
   d="m 661.95,372.73 h 0.46 c 0.47,-0.11 1.16,0.11 1.51,0.69 0.1,1.58 -1.86,2.59 -3.01,3.73 0.57,0.12 0.81,-0.22 1.14,-0.33 1.63,-1.01 3.37,-2.61 2.91,-4.77 -0.36,-0.68 -1.16,-1.02 -1.86,-1.14 -0.92,0.11 -1.15,1.03 -1.15,1.82"
   clip-path="url(#SVGID_00000026872820391876966590000011639630214089585051_)"
   id="path90" />
		<polygon
   style="fill:#020303"
   points="688.69,396.05 688.71,396.1 688.41,396.18 "
   clip-path="url(#SVGID_00000026872820391876966590000011639630214089585051_)"
   id="polygon90" />
		<path
   style="fill:#04814f"
   d="m 529.54,235.02 c 16.41,-2.44 27.47,17.85 27.47,17.85 -2.15,-32.49 -36.63,-27.7 -36.63,-27.7 8.74,-6.87 26.45,1.86 26.45,1.86 -12.87,-18.09 -31.32,-12.91 -31.32,-12.91 2.2,-4.17 15.43,-3.27 15.43,-3.27 -12.01,-11.83 -26.06,0.05 -26.06,0.05 0.67,-6.52 -4.89,-16.73 -4.89,-16.73 0,0 -5.55,10.22 -4.88,16.73 0,0 -14.05,-11.88 -26.06,-0.05 0,0 13.23,-0.91 15.44,3.27 0,0 -18.45,-5.17 -31.32,12.91 0,0 17.7,-8.74 26.45,-1.86 0,0 -34.48,-4.79 -36.63,27.7 0,0 11.05,-20.29 27.46,-17.85 0,0 -35.1,9.95 -18.31,41.23 0,0 -0.91,-25.92 19.32,-31.8 0,0 -26.6,21.25 -2.64,39.18 0,0 -4.96,-20.13 8.94,-29.33 0,0 -9.84,22.6 9.32,41.65 0,0 -3.93,-19.35 8.41,-29.98 v 33.56 c -0.16,4.82 -0.52,10.53 -0.74,14.73 -0.41,7.59 -0.81,13.18 -0.83,13.42 -1.03,4.73 -1.04,7.89 -1.04,7.93 v 0.02 0.03 l 0.11,2.25 0.14,2.8 -0.57,1.53 -0.15,0.42 v 0 c -0.64,1.16 -0.91,2.22 -0.91,3.11 0,1.51 0.69,2.48 1.1,2.91 l -1.26,23.86 c -3.44,3.62 -6.39,10.13 -6.42,10.16 l -0.49,1.08 h 1.17 11.94 4.88 11.96 1.17 l -0.5,-1.08 c -0.02,-0.02 -2.99,-6.54 -6.42,-10.17 l -1.25,-23.85 c 0.41,-0.44 1.09,-1.4 1.09,-2.91 0,-0.89 -0.26,-1.95 -0.91,-3.11 v 0 l -0.31,-0.87 -0.41,-1.09 0.15,-3.09 0.1,-1.96 v -0.03 -0.02 c 0,-0.04 -0.01,-3.19 -1.04,-7.92 -0.02,-0.16 -0.42,-5.77 -0.83,-13.42 -0.22,-4.21 -0.59,-9.93 -0.74,-14.75 v -33.56 c 12.35,10.63 8.41,29.98 8.41,29.98 19.15,-19.04 9.32,-41.65 9.32,-41.65 13.9,9.2 8.94,29.33 8.94,29.33 23.96,-17.94 -2.63,-39.18 -2.63,-39.18 20.21,5.88 19.3,31.8 19.3,31.8 16.83,-31.27 -18.28,-41.21 -18.28,-41.21"
   clip-path="url(#SVGID_00000026872820391876966590000011639630214089585051_)"
   id="path91" />
		
			<path
   style="fill:none;stroke:#231f20;stroke-width:1.3271;stroke-miterlimit:10"
   d="m 529.54,235.02 c 16.41,-2.44 27.47,17.85 27.47,17.85 -2.15,-32.49 -36.63,-27.7 -36.63,-27.7 8.74,-6.87 26.45,1.86 26.45,1.86 -12.87,-18.09 -31.32,-12.91 -31.32,-12.91 2.2,-4.17 15.43,-3.27 15.43,-3.27 -12.01,-11.83 -26.06,0.05 -26.06,0.05 0.67,-6.52 -4.89,-16.73 -4.89,-16.73 0,0 -5.55,10.22 -4.88,16.73 0,0 -14.05,-11.88 -26.06,-0.05 0,0 13.23,-0.91 15.44,3.27 0,0 -18.45,-5.17 -31.32,12.91 0,0 17.7,-8.74 26.45,-1.86 0,0 -34.48,-4.79 -36.63,27.7 0,0 11.05,-20.29 27.46,-17.85 0,0 -35.1,9.95 -18.31,41.23 0,0 -0.91,-25.92 19.32,-31.8 0,0 -26.6,21.25 -2.64,39.18 0,0 -4.96,-20.13 8.94,-29.33 0,0 -9.84,22.6 9.32,41.65 0,0 -3.93,-19.35 8.41,-29.98 v 33.56 c -0.16,4.82 -0.52,10.53 -0.74,14.73 -0.41,7.59 -0.81,13.18 -0.83,13.42 -1.03,4.73 -1.04,7.89 -1.04,7.93 v 0.02 0.03 l 0.11,2.25 0.14,2.8 -0.57,1.53 -0.15,0.42 v 0 c -0.64,1.16 -0.91,2.22 -0.91,3.11 0,1.51 0.69,2.48 1.1,2.91 l -1.26,23.86 c -3.44,3.62 -6.39,10.13 -6.42,10.16 l -0.49,1.08 h 1.17 11.94 4.88 11.96 1.17 l -0.5,-1.08 c -0.02,-0.02 -2.99,-6.54 -6.42,-10.17 l -1.25,-23.85 c 0.41,-0.44 1.09,-1.4 1.09,-2.91 0,-0.89 -0.26,-1.95 -0.91,-3.11 v 0 l -0.31,-0.87 -0.41,-1.09 0.15,-3.09 0.1,-1.96 v -0.03 -0.02 c 0,-0.04 -0.01,-3.19 -1.04,-7.92 -0.02,-0.16 -0.42,-5.77 -0.83,-13.42 -0.22,-4.21 -0.59,-9.93 -0.74,-14.75 v -33.56 c 12.35,10.63 8.41,29.98 8.41,29.98 19.15,-19.04 9.32,-41.65 9.32,-41.65 13.9,9.2 8.94,29.33 8.94,29.33 23.96,-17.94 -2.63,-39.18 -2.63,-39.18 20.21,5.88 19.3,31.8 19.3,31.8 16.83,-31.27 -18.28,-41.21 -18.28,-41.21 z"
   clip-path="url(#SVGID_00000026872820391876966590000011639630214089585051_)"
   id="path92" />
		<path
   style="fill:#1c7a62"
   d="m 579.99,382.01 c -5.21,0.93 -10.4,2.06 -15.51,3.46 -5.86,1.58 -11.63,3.54 -17.25,5.86 -6.26,2.59 -12.33,5.65 -18.15,9.13 -6.47,3.85 -12.65,8.2 -18.58,12.85 -6.52,5.1 -12.73,10.55 -18.78,16.17 -3.19,2.94 -6.32,5.93 -9.45,8.93 -2.3,2.23 -4.6,4.51 -6.96,6.65 l -1.45,1.26 -0.42,0.36 0.21,0.51 c 0.65,1.6 2.13,4.12 5.19,4.67 l 0.52,0.1 0.27,-0.47 c 0,0 0.21,-0.4 0.66,-1.03 0.44,-0.63 1.09,-1.48 1.9,-2.32 1.62,-1.68 3.89,-3.28 6.46,-3.27 0.52,0 1.06,0.07 1.62,0.2 3.28,0.84 5.27,3.74 5.27,6.86 0,2.69 -1.46,5.57 -5.08,7.49 l -0.18,0.07 -0.64,0.21 c -0.58,0.16 -1.45,0.31 -2.56,0.31 -3.5,0 -9.51,-1.52 -17.01,-9.87 l -0.44,-0.49 -0.54,0.37 c -0.55,0.38 -1.09,0.74 -1.62,1.07 -3.22,2.01 -6.49,3.9 -9.79,5.78 -4.43,2.54 -8.24,3.54 -11.32,3.54 -6.18,-0.03 -9.47,-3.92 -9.48,-7.99 0,-0.73 0.1,-1.45 0.32,-2.17 1.25,-4.07 3.97,-4.91 6.46,-4.96 1.72,-0.01 3.28,0.51 3.7,0.73 0.57,0.28 1.28,0.85 1.81,1.35 l 0.9,0.91 0.16,0.18 0.22,0.06 1.38,0.34 v -0.01 l 0.55,0.08 c 1.34,-0.03 4.73,-0.8 12.17,-7.42 l 0.26,-0.23 v -0.33 -0.11 c 0,-1.6 -0.43,-3.61 -2.11,-5.12 l -0.4,-0.36 -0.47,0.26 -0.57,0.29 c -0.38,0.17 -0.92,0.41 -1.58,0.65 -1.32,0.48 -3.11,0.95 -4.9,0.95 -1.92,-0.01 -3.81,-0.52 -5.33,-2.11 -1.34,-1.4 -1.97,-3.13 -1.98,-4.86 0.03,-3.73 2.91,-7.44 8.39,-7.47 l 0.94,0.03 c 3.37,0.26 5.35,2.5 6.86,5.5 1.48,2.99 2.32,6.59 3.37,9.17 l 0.43,1.03 0.79,-0.78 1.21,-1.2 0.01,-0.01 c 58.84,-64.9 126.4,-57.19 127.99,-57.14 -1.55,0.15 -3.11,0.25 -4.66,0.44 -4.28,0.52 -8.56,1.15 -12.81,1.9"
   clip-path="url(#SVGID_00000026872820391876966590000011639630214089585051_)"
   id="path93" />
		
			<path
   style="fill:none;stroke:#020303;stroke-width:1.3271;stroke-linejoin:round;stroke-miterlimit:10"
   d="m 579.99,382.01 c -5.21,0.93 -10.4,2.06 -15.51,3.46 -5.86,1.58 -11.63,3.54 -17.25,5.86 -6.26,2.59 -12.33,5.65 -18.15,9.13 -6.47,3.85 -12.65,8.2 -18.58,12.85 -6.52,5.1 -12.73,10.55 -18.78,16.17 -3.19,2.94 -6.32,5.93 -9.45,8.93 -2.3,2.23 -4.6,4.51 -6.96,6.65 l -1.45,1.26 -0.42,0.36 0.21,0.51 c 0.65,1.6 2.13,4.12 5.19,4.67 l 0.52,0.1 0.27,-0.47 c 0,0 0.21,-0.4 0.66,-1.03 0.44,-0.63 1.09,-1.48 1.9,-2.32 1.62,-1.68 3.89,-3.28 6.46,-3.27 0.52,0 1.06,0.07 1.62,0.2 3.28,0.84 5.27,3.74 5.27,6.86 0,2.69 -1.46,5.57 -5.08,7.49 l -0.18,0.07 -0.64,0.21 c -0.58,0.16 -1.45,0.31 -2.56,0.31 -3.5,0 -9.51,-1.52 -17.01,-9.87 l -0.44,-0.49 -0.54,0.37 c -0.55,0.38 -1.09,0.74 -1.62,1.07 -3.22,2.01 -6.49,3.9 -9.79,5.78 -4.43,2.54 -8.24,3.54 -11.32,3.54 -6.18,-0.03 -9.47,-3.92 -9.48,-7.99 0,-0.73 0.1,-1.45 0.32,-2.17 1.25,-4.07 3.97,-4.91 6.46,-4.96 1.72,-0.01 3.28,0.51 3.7,0.73 0.57,0.28 1.28,0.85 1.81,1.35 l 0.9,0.91 0.16,0.18 0.22,0.06 1.38,0.34 v -0.01 l 0.55,0.08 c 1.34,-0.03 4.73,-0.8 12.17,-7.42 l 0.26,-0.23 v -0.33 -0.11 c 0,-1.6 -0.43,-3.61 -2.11,-5.12 l -0.4,-0.36 -0.47,0.26 -0.57,0.29 c -0.38,0.17 -0.92,0.41 -1.58,0.65 -1.32,0.48 -3.11,0.95 -4.9,0.95 -1.92,-0.01 -3.81,-0.52 -5.33,-2.11 -1.34,-1.4 -1.97,-3.13 -1.98,-4.86 0.03,-3.73 2.91,-7.44 8.39,-7.47 l 0.94,0.03 c 3.37,0.26 5.35,2.5 6.86,5.5 1.48,2.99 2.32,6.59 3.37,9.17 l 0.43,1.03 0.79,-0.78 1.21,-1.2 0.01,-0.01 c 58.84,-64.9 126.4,-57.19 127.99,-57.14 -1.55,0.15 -3.11,0.25 -4.66,0.44 -4.28,0.52 -8.56,1.15 -12.81,1.9 z"
   clip-path="url(#SVGID_00000026872820391876966590000011639630214089585051_)"
   id="path94" />
		<path
   style="fill:#1c7a62"
   d="m 420,382.01 c 5.21,0.93 10.4,2.06 15.51,3.46 5.86,1.58 11.63,3.54 17.25,5.86 6.26,2.59 12.33,5.65 18.15,9.13 6.47,3.85 12.65,8.2 18.58,12.85 6.51,5.1 12.73,10.55 18.78,16.17 3.19,2.94 6.33,5.93 9.45,8.93 2.3,2.23 4.6,4.51 6.96,6.65 l 1.45,1.26 0.42,0.36 -0.21,0.51 c -0.64,1.6 -2.13,4.12 -5.19,4.67 l -0.52,0.1 -0.27,-0.47 c 0,0 -0.21,-0.4 -0.66,-1.03 -0.43,-0.63 -1.08,-1.48 -1.89,-2.32 -1.62,-1.68 -3.89,-3.28 -6.46,-3.27 -0.52,0 -1.06,0.07 -1.62,0.2 -3.28,0.84 -5.27,3.74 -5.27,6.86 0,2.69 1.46,5.57 5.08,7.49 l 0.17,0.07 0.64,0.21 c 0.58,0.16 1.45,0.31 2.56,0.31 3.5,0 9.51,-1.52 17.01,-9.87 l 0.44,-0.49 0.54,0.37 c 0.55,0.38 1.09,0.74 1.62,1.07 3.22,2.01 6.49,3.9 9.79,5.78 4.43,2.54 8.24,3.54 11.32,3.54 6.18,-0.03 9.47,-3.92 9.48,-7.99 0,-0.73 -0.1,-1.45 -0.32,-2.17 -1.25,-4.07 -3.97,-4.91 -6.46,-4.96 -1.72,-0.01 -3.28,0.51 -3.7,0.73 -0.57,0.28 -1.28,0.85 -1.8,1.35 l -0.9,0.91 -0.16,0.18 -0.22,0.06 -1.38,0.34 v -0.01 l -0.55,0.08 c -1.34,-0.03 -4.74,-0.8 -12.17,-7.42 l -0.26,-0.23 v -0.33 -0.11 c 0,-1.6 0.43,-3.61 2.11,-5.12 l 0.4,-0.36 0.47,0.26 0.57,0.29 c 0.38,0.17 0.92,0.41 1.58,0.65 1.33,0.48 3.11,0.95 4.9,0.95 1.92,-0.01 3.81,-0.52 5.33,-2.11 1.34,-1.4 1.97,-3.13 1.97,-4.86 -0.02,-3.73 -2.9,-7.44 -8.38,-7.47 l -0.94,0.03 c -3.37,0.26 -5.35,2.5 -6.85,5.5 -1.49,2.99 -2.33,6.59 -3.37,9.17 l -0.43,1.03 -0.79,-0.78 -1.2,-1.2 -0.01,-0.01 c -58.84,-64.9 -126.4,-57.19 -127.99,-57.14 1.55,0.15 3.12,0.25 4.66,0.44 4.25,0.52 8.53,1.15 12.78,1.9"
   clip-path="url(#SVGID_00000026872820391876966590000011639630214089585051_)"
   id="path95" />
		
			<path
   style="fill:none;stroke:#020303;stroke-width:1.3271;stroke-linejoin:round;stroke-miterlimit:10"
   d="m 420,382.01 c 5.21,0.93 10.4,2.06 15.51,3.46 5.86,1.58 11.63,3.54 17.25,5.86 6.26,2.59 12.33,5.65 18.15,9.13 6.47,3.85 12.65,8.2 18.58,12.85 6.51,5.1 12.73,10.55 18.78,16.17 3.19,2.94 6.33,5.93 9.45,8.93 2.3,2.23 4.6,4.51 6.96,6.65 l 1.45,1.26 0.42,0.36 -0.21,0.51 c -0.64,1.6 -2.13,4.12 -5.19,4.67 l -0.52,0.1 -0.27,-0.47 c 0,0 -0.21,-0.4 -0.66,-1.03 -0.43,-0.63 -1.08,-1.48 -1.89,-2.32 -1.62,-1.68 -3.89,-3.28 -6.46,-3.27 -0.52,0 -1.06,0.07 -1.62,0.2 -3.28,0.84 -5.27,3.74 -5.27,6.86 0,2.69 1.46,5.57 5.08,7.49 l 0.17,0.07 0.64,0.21 c 0.58,0.16 1.45,0.31 2.56,0.31 3.5,0 9.51,-1.52 17.01,-9.87 l 0.44,-0.49 0.54,0.37 c 0.55,0.38 1.09,0.74 1.62,1.07 3.22,2.01 6.49,3.9 9.79,5.78 4.43,2.54 8.24,3.54 11.32,3.54 6.18,-0.03 9.47,-3.92 9.48,-7.99 0,-0.73 -0.1,-1.45 -0.32,-2.17 -1.25,-4.07 -3.97,-4.91 -6.46,-4.96 -1.72,-0.01 -3.28,0.51 -3.7,0.73 -0.57,0.28 -1.28,0.85 -1.8,1.35 l -0.9,0.91 -0.16,0.18 -0.22,0.06 -1.38,0.34 v -0.01 l -0.55,0.08 c -1.34,-0.03 -4.74,-0.8 -12.17,-7.42 l -0.26,-0.23 v -0.33 -0.11 c 0,-1.6 0.43,-3.61 2.11,-5.12 l 0.4,-0.36 0.47,0.26 0.57,0.29 c 0.38,0.17 0.92,0.41 1.58,0.65 1.33,0.48 3.11,0.95 4.9,0.95 1.92,-0.01 3.81,-0.52 5.33,-2.11 1.34,-1.4 1.97,-3.13 1.97,-4.86 -0.02,-3.73 -2.9,-7.44 -8.38,-7.47 l -0.94,0.03 c -3.37,0.26 -5.35,2.5 -6.85,5.5 -1.49,2.99 -2.33,6.59 -3.37,9.17 l -0.43,1.03 -0.79,-0.78 -1.2,-1.2 -0.01,-0.01 c -58.84,-64.9 -126.4,-57.19 -127.99,-57.14 1.55,0.15 3.12,0.25 4.66,0.44 4.25,0.52 8.53,1.15 12.78,1.9 z"
   clip-path="url(#SVGID_00000026872820391876966590000011639630214089585051_)"
   id="path96" />
		<path
   style="fill:#04814f"
   d="m 667.43,554.9 c -2.07,4.04 -7.8,14.04 -17.92,23.54 -11.59,10.86 -28.84,21.05 -53.1,21.06 -25.88,0 -42.91,-11.58 -53.59,-23.2 -5.35,-5.81 -9.08,-11.62 -11.46,-15.98 -1.19,-2.18 -2.06,-4 -2.61,-5.25 l -0.07,-0.17 z"
   clip-path="url(#SVGID_00000026872820391876966590000011639630214089585051_)"
   id="path97" />
		
			<path
   style="fill:none;stroke:#020303;stroke-width:1.3271;stroke-linejoin:round;stroke-miterlimit:10"
   d="m 667.43,554.9 c -2.07,4.04 -7.8,14.04 -17.92,23.54 -11.59,10.86 -28.84,21.05 -53.1,21.06 -25.88,0 -42.91,-11.58 -53.59,-23.2 -5.35,-5.81 -9.08,-11.62 -11.46,-15.98 -1.19,-2.18 -2.06,-4 -2.61,-5.25 l -0.07,-0.17 z"
   clip-path="url(#SVGID_00000026872820391876966590000011639630214089585051_)"
   id="path98" />
		
			<polygon
   style="fill:none;stroke:#020303;stroke-width:1.3271;stroke-linejoin:round;stroke-miterlimit:10"
   points="598.04,379.82 528.53,552.97 667.56,552.97 "
   clip-path="url(#SVGID_00000026872820391876966590000011639630214089585051_)"
   id="polygon98" />
		<path
   style="fill:#04814f"
   d="m 471.91,554.9 c -2.07,4.04 -7.8,14.04 -17.92,23.54 -11.59,10.86 -28.84,21.05 -53.1,21.06 -25.88,0 -42.91,-11.58 -53.59,-23.2 -5.34,-5.81 -9.07,-11.62 -11.46,-15.98 -1.2,-2.18 -2.06,-4 -2.62,-5.25 l -0.07,-0.17 z"
   clip-path="url(#SVGID_00000026872820391876966590000011639630214089585051_)"
   id="path99" />
		
			<path
   style="fill:none;stroke:#020303;stroke-width:1.3271;stroke-linejoin:round;stroke-miterlimit:10"
   d="m 471.91,554.9 c -2.07,4.04 -7.8,14.04 -17.92,23.54 -11.59,10.86 -28.84,21.05 -53.1,21.06 -25.88,0 -42.91,-11.58 -53.59,-23.2 -5.34,-5.81 -9.07,-11.62 -11.46,-15.98 -1.2,-2.18 -2.06,-4 -2.62,-5.25 l -0.07,-0.17 z"
   clip-path="url(#SVGID_00000026872820391876966590000011639630214089585051_)"
   id="path100" />
		
			<polygon
   style="fill:none;stroke:#020303;stroke-width:1.3271;stroke-linejoin:round;stroke-miterlimit:10"
   points="402.53,379.82 333.02,552.97 472.05,552.97 "
   clip-path="url(#SVGID_00000026872820391876966590000011639630214089585051_)"
   id="polygon100" />
	</g>
</g>
</svg>
